<?xml version="1.0" encoding="UTF-8"?>
<svg version="1.1" xmlns="http://www.w3.org/2000/svg" width="302" height="72">
<path d="M0 0 C99.66 0 199.32 0 302 0 C302 23.76 302 47.52 302 72 C202.34 72 102.68 72 0 72 C0 48.24 0 24.48 0 0 Z " fill="#020202" transform="translate(0,0)"/>
<path d="M0 0 C3.63 0 7.26 0 11 0 C11 5.28 11 10.56 11 16 C12.65 15.01 14.3 14.02 16 13 C21.5117567 12.01134409 26.59654542 12.31525708 31.5 15.125 C34.98070136 17.70699568 36.78112212 19.73392741 38 24 C38.58560791 29.74488772 39.09737793 35.76567413 36.4375 41.0625 C33.06923518 45.12169093 30.08711806 47.51917453 24.79296875 48.34375 C19.48683535 48.56069583 15.69896929 47.39947368 11 45 C11 45.66 11 46.32 11 47 C7.37 47 3.74 47 0 47 C0 31.49 0 15.98 0 0 Z " fill="#F5F5F5" transform="translate(43,22)"/>
<path d="M0 0 C3.63 0 7.26 0 11 0 C11.33 4.95 11.66 9.9 12 15 C13.98 14.34 15.96 13.68 18 13 C23.30486724 12.22805654 27.96817262 12.60157684 32.4921875 15.62109375 C36.18968372 19.00248278 37.72949296 22.83286975 38.34375 27.75390625 C38.56458736 34.51705029 37.56217676 39.02456893 33.0625 44.25 C29.28679003 47.45363271 26.45008003 48.27719824 21.5 48.25 C20.5615625 48.25515625 19.623125 48.2603125 18.65625 48.265625 C15.95952324 47.99595232 14.31050707 47.3732259 12 46 C11.505 46.495 11.505 46.495 11 47 C7.37 47 3.74 47 0 47 C0 31.49 0 15.98 0 0 Z " fill="#F7F7F7" transform="translate(217,22)"/>
<path d="M0 0 C0.845625 -0.00515625 1.69125 -0.0103125 2.5625 -0.015625 C5.13478811 0.26468845 6.7803108 0.9551813 9 2.25 C9.33 1.92 9.66 1.59 10 1.25 C13.63 1.25 17.26 1.25 21 1.25 C21 12.14 21 23.03 21 34.25 C16.71 34.25 12.42 34.25 8 34.25 C7.01 34.745 7.01 34.745 6 35.25 C0.91684193 35.76421665 -4.26182313 36.05734489 -8.9375 33.75 C-13.55574201 29.98000652 -15.55396119 26.45044345 -16.37890625 20.53125 C-16.69015086 13.22202178 -15.16375329 9.07286856 -10.5 3.4375 C-7.11303336 0.75615141 -4.30165394 -0.0262296 0 0 Z " fill="#A924E9" transform="translate(16,34.75)"/>
<path d="M0 0 C1.25103516 0.00966797 1.25103516 0.00966797 2.52734375 0.01953125 C5.0625 0.1875 5.0625 0.1875 10.0625 1.1875 C13.6925 1.1875 17.3225 1.1875 21.0625 1.1875 C21.0625 12.0775 21.0625 22.9675 21.0625 34.1875 C16.4425 34.1875 11.8225 34.1875 7.0625 34.1875 C6.7325 34.5175 6.4025 34.8475 6.0625 35.1875 C0.84634049 35.72955405 -3.59201368 35.82354808 -8.375 33.5625 C-12.49018325 29.74842772 -15.62820273 25.64330223 -16.140625 19.91796875 C-16.26266834 13.29711777 -15.44206318 9.09602499 -11 3.9375 C-7.41085401 0.89216401 -4.7091259 -0.07981569 0 0 Z " fill="#F7F7F7" transform="translate(187.9375,34.8125)"/>
<path d="M0 0 C0 3.63 0 7.26 0 11 C2.31 11 4.62 11 7 11 C7 21.89 7 32.78 7 44 C-5 44 -5 44 -8.1875 41.6875 C-11.18154893 37.24804814 -11.12522504 33.48007791 -11.0625 28.3125 C-11.05798828 27.61060547 -11.05347656 26.90871094 -11.04882812 26.18554688 C-11.03706927 24.45699462 -11.01913454 22.72848635 -11 21 C-12.65 21 -14.3 21 -16 21 C-16 17.7 -16 14.4 -16 11 C-14.35 11 -12.7 11 -11 11 C-11 8.36 -11 5.72 -11 3 C-9.35467212 2.49833923 -7.70872301 1.99871553 -6.0625 1.5 C-5.14597656 1.2215625 -4.22945313 0.943125 -3.28515625 0.65625 C-1 0 -1 0 0 0 Z " fill="#F5F5F5" transform="translate(295,25)"/>
<path d="M0 0 C2.45056568 1.71539597 3.92988486 3.22037006 5.5 5.75 C1.03968254 8.72354497 1.03968254 8.72354497 -1.5 9.75 C-4.1875 9 -4.1875 9 -6.5 7.75 C-7.82 7.75 -9.14 7.75 -10.5 7.75 C-10.5 8.41 -10.5 9.07 -10.5 9.75 C-9.60796875 9.98074219 -8.7159375 10.21148437 -7.796875 10.44921875 C-6.62640625 10.77535156 -5.4559375 11.10148437 -4.25 11.4375 C-3.08984375 11.75074219 -1.9296875 12.06398438 -0.734375 12.38671875 C2.97810527 13.95152022 4.39481663 15.35010337 6.5 18.75 C7.264153 21.53257094 7.1532755 23.9437557 6.5 26.75 C3.43250222 30.90014405 0.51961536 32.70819304 -4.5 33.75 C-10.51501018 34.29949522 -15.36679103 34.29435858 -20.5 30.75 C-22.875 28.0625 -22.875 28.0625 -24.5 25.75 C-17.875 21.75 -17.875 21.75 -14.5 21.75 C-14.5 22.41 -14.5 23.07 -14.5 23.75 C-11.2 24.08 -7.9 24.41 -4.5 24.75 C-4.5 23.76 -4.5 22.77 -4.5 21.75 C-5.29664062 21.59144531 -6.09328125 21.43289062 -6.9140625 21.26953125 C-18.53071471 18.71160662 -18.53071471 18.71160662 -22.5 13.75 C-23.22416019 10.91657957 -23.17822202 8.58933623 -22.5 5.75 C-17.4553887 -2.53757571 -8.62919443 -3.08185515 0 0 Z " fill="#F2F2F2" transform="translate(109.5,36.25)"/>
<path d="M0 0 C0 3.63 0 7.26 0 11 C2.31 11 4.62 11 7 11 C7 13.97 7 16.94 7 20 C4.69 20 2.38 20 0 20 C0.33 24.29 0.66 28.58 1 33 C2.98 33.33 4.96 33.66 7 34 C7 37.3 7 40.6 7 44 C-3.89944553 44.62580548 -3.89944553 44.62580548 -8.1875 42.1875 C-10.6883971 39.16917592 -11.12618661 36.78281919 -11.09765625 32.98828125 C-11.09443359 32.23095703 -11.09121094 31.47363281 -11.08789062 30.69335938 C-11.07951172 29.90767578 -11.07113281 29.12199219 -11.0625 28.3125 C-11.05798828 27.51521484 -11.05347656 26.71792969 -11.04882812 25.89648438 C-11.0370585 23.93095743 -11.01912348 21.96546915 -11 20 C-12.65 20 -14.3 20 -16 20 C-16 17.03 -16 14.06 -16 11 C-14.35 11 -12.7 11 -11 11 C-11 8.36 -11 5.72 -11 3 C-9.73160474 2.49384702 -8.46016898 1.99530901 -7.1875 1.5 C-6.12595703 1.08234375 -6.12595703 1.08234375 -5.04296875 0.65625 C-3 0 -3 0 0 0 Z " fill="#F5F5F5" transform="translate(134,25)"/>
<path d="M0 0 C3.20356104 1.40669187 5.52919818 3.29997905 8.1875 5.5703125 C9.15171875 6.385 10.1159375 7.1996875 11.109375 8.0390625 C14.42009755 10.92761237 14.42009755 10.92761237 14.75 13.6328125 C14.34561269 18.08107286 12.61945863 21.23240312 10.4375 25.0703125 C5.41057937 24.61331972 2.28853739 22.07789502 -1.5625 19.0703125 C-2.03300781 19.5034375 -2.50351562 19.9365625 -2.98828125 20.3828125 C-3.61089844 20.9396875 -4.23351563 21.4965625 -4.875 22.0703125 C-5.48988281 22.6271875 -6.10476562 23.1840625 -6.73828125 23.7578125 C-8.5625 25.0703125 -8.5625 25.0703125 -11.5625 25.0703125 C-12.43394869 23.5173849 -13.28403657 21.95245814 -14.125 20.3828125 C-14.83849609 19.07763672 -14.83849609 19.07763672 -15.56640625 17.74609375 C-16.77547218 14.49821077 -16.8967396 13.27348696 -15.5625 10.0703125 C-13.50470676 8.05321009 -11.59844507 6.40101768 -9.3125 4.6953125 C-8.73886719 4.23253906 -8.16523438 3.76976562 -7.57421875 3.29296875 C-5.0408539 1.35976323 -3.23493893 0.08876357 0 0 Z " fill="#941FE6" transform="translate(23.5625,-0.0703125)"/>
<path d="M0 0 C0.125 7.75 0.125 7.75 -1 10 C-2.3921875 10.433125 -2.3921875 10.433125 -3.8125 10.875 C-7.44512626 12.15710339 -8.72183572 12.90786159 -11 16 C-11.62865287 19.07648164 -11.69614946 22.1168778 -11.75 25.25 C-11.77964844 26.09046875 -11.80929688 26.9309375 -11.83984375 27.796875 C-11.91031636 29.8640715 -11.95744939 31.93204033 -12 34 C-15.3 34 -18.6 34 -22 34 C-22 23.11 -22 12.22 -22 1 C-18.7 1 -15.4 1 -12 1 C-11.67 2.32 -11.34 3.64 -11 5 C-10.38125 4.360625 -9.7625 3.72125 -9.125 3.0625 C-5.98002548 0.01002473 -4.27840282 -0.11258955 0 0 Z " fill="#F8F8F8" transform="translate(170,35)"/>
<path d="M0 0 C0.845625 -0.00515625 1.69125 -0.0103125 2.5625 -0.015625 C5.13478811 0.26468845 6.7803108 0.9551813 9 2.25 C9.33 1.92 9.66 1.59 10 1.25 C11.85287502 1.17773498 13.70833878 1.1661878 15.5625 1.1875 C16.57441406 1.19652344 17.58632813 1.20554688 18.62890625 1.21484375 C19.41136719 1.22644531 20.19382813 1.23804688 21 1.25 C21.65172156 4.44343565 21.85196137 7.08270832 21 10.25 C17.99212644 13.16288808 14.64992796 15.22298644 11 17.25 C10.34 16.425 9.68 15.6 9 14.75 C5.96171887 12.21809906 5.48419817 11.87269177 1.8125 11.8125 C-2.01607489 11.85148679 -2.01607489 11.85148679 -4 14.25 C-6.31979381 15.28101947 -8.65429915 16.27936517 -11 17.25 C-12.34013497 17.90288627 -13.67741528 18.56225595 -15 19.25 C-16 18.25 -16 18.25 -16.08984375 16.4296875 C-15.72167436 10.85994547 -14.4447211 7.76701035 -10.66796875 3.66015625 C-7.232095 0.75535432 -4.47638837 -0.02729505 0 0 Z " fill="#C93EBF" transform="translate(16,34.75)"/>
<path d="M0 0 C3.63 0 7.26 0 11 0 C11 10.89 11 21.78 11 33 C7.37 33 3.74 33 0 33 C0 22.11 0 11.22 0 0 Z " fill="#F3F3F3" transform="translate(263,36)"/>
<path d="M0 0 C2.375 1.5625 2.375 1.5625 4 4 C4.56783945 7.97487617 4.62340519 10.06489221 2.375 13.4375 C-0.75683492 15.49791771 -2.31544773 15.6767545 -6 15 C-9.35694984 12.51877621 -10.78441871 11.05634831 -11.625 6.9375 C-11 4 -11 4 -8.875 1.625 C-5.50335677 -0.28071139 -3.80994895 -0.64850195 0 0 Z " fill="#0B0B0B" transform="translate(240,45)"/>
<path d="M0 0 C1.9375 1.125 1.9375 1.125 3 3 C3.5 6.4375 3.5 6.4375 3 10 C0.41830549 12.96135546 -1.18881135 13.86756104 -5.0625 14.5 C-8 14 -8 14 -10.375 12.4375 C-12.63913895 9.04129157 -12.64269755 6.99900698 -12 3 C-8.31376997 -1.46815761 -5.41712863 -1.50475795 0 0 Z " fill="#0A0A0A" transform="translate(195,46)"/>
<path d="M0 0 C2.375 1.5625 2.375 1.5625 4 4 C4.56783945 7.97487617 4.62340519 10.06489221 2.375 13.4375 C-0.75683492 15.49791771 -2.31544773 15.6767545 -6 15 C-8.9375 12.9375 -8.9375 12.9375 -11 10 C-11.06641554 6.14789873 -10.87229157 4.00151995 -8.3125 1.0625 C-5.26397123 -0.33817538 -3.32073048 -0.4842732 0 0 Z " fill="#0B0B0B" transform="translate(66,45)"/>
<path d="M0 0 C2.5 1.0625 2.5 1.0625 4 3 C4.42383837 6.39070692 4.63486492 8.80962827 3 11.875 C-0.19430712 13.67179775 -3.34651551 14.22788334 -7 14 C-9.5 12.5 -9.5 12.5 -11 10 C-11.42213381 6.56262469 -11.60856522 4.17909511 -10 1.0625 C-6.76577301 -0.65568309 -3.52927111 -0.50418159 0 0 Z " fill="#050106" transform="translate(22,46)"/>
<path d="M0 0 C1 1 1 1 1.3125 3.5625 C0.90811269 8.01076036 -0.81804137 11.16209062 -3 15 C-8.03985731 14.55530671 -10.37634988 12.28656638 -14 9 C-6.25870647 -0.67661692 -6.25870647 -0.67661692 0 0 Z " fill="#ED6C57" transform="translate(37,10)"/>
<path d="M0 0 C0.86882813 -0.00515625 1.73765625 -0.0103125 2.6328125 -0.015625 C4.875 0.25 4.875 0.25 6.875 2.25 C-4.35546875 8.98828125 -4.35546875 8.98828125 -6.31396484 10.15869141 C-7.88211705 11.10364158 -9.4365519 12.07128557 -10.98828125 13.04296875 C-13.125 14.25 -13.125 14.25 -15.125 14.25 C-15.455 14.91 -15.785 15.57 -16.125 16.25 C-15.89610404 10.64204896 -14.5091502 7.90520215 -10.79296875 3.73046875 C-7.36259165 0.68570781 -4.54844249 -0.02715488 0 0 Z " fill="#C944A7" transform="translate(16.125,34.75)"/>
<path d="M0 0 C2 3 2 3 1.75 6.0625 C1 9 1 9 -1 11 C-7.05240175 11.55021834 -7.05240175 11.55021834 -9.9375 9.875 C-11.52225401 7.07837528 -11.45947423 5.1506804 -11 2 C-7.82775887 -1.933579 -4.58022934 -1.18746687 0 0 Z " fill="#EBEBEB" transform="translate(273,21)"/>
<path d="M0 0 C0.88082902 5.02072539 0.88082902 5.02072539 0 8 C-3.03482835 10.84847924 -6.3948848 12.93993417 -10 15 C-11.70884005 13.37660195 -13.37446717 11.70680947 -15 10 C-15 9.34 -15 8.68 -15 8 C-13.37501495 6.93360356 -11.69403834 5.95289657 -10 5 C-7.91810934 3.67045606 -5.84238312 2.33186975 -3.76953125 0.98828125 C-2 0 -2 0 0 0 Z " fill="#C83EBB" transform="translate(37,37)"/>
<path d="M0 0 C2.31 0 4.62 0 7 0 C7 4.62 7 9.24 7 14 C5.02 14 3.04 14 1 14 C0 13 0 13 -0.09765625 10.05859375 C-0.08605469 8.86363281 -0.07445312 7.66867188 -0.0625 6.4375 C-0.05347656 5.23996094 -0.04445313 4.04242188 -0.03515625 2.80859375 C-0.02355469 1.88175781 -0.01195312 0.95492187 0 0 Z " fill="#0F0F0F" transform="translate(295,45)"/>
<path d="M0 0 C-12.60615385 10.38153846 -12.60615385 10.38153846 -21 10 C-19.33333333 8.33333333 -17.66666667 6.66666667 -16 5 C-15.29875 4.071875 -14.5975 3.14375 -13.875 2.1875 C-9.52586461 -1.12162475 -5.28038839 -0.41614269 0 0 Z " fill="#C943AB" transform="translate(37,36)"/>
<path d="M0 0 C0.33 1.32 0.66 2.64 1 4 C-2.3 6.31 -5.6 8.62 -9 11 C-11 8 -11 8 -11 6 C-7.37 4.02 -3.74 2.04 0 0 Z " fill="#C235D0" transform="translate(36,41)"/>
<path d="M0 0 C3.63 0 7.26 0 11 0 C10.34 1.98 9.68 3.96 9 6 C5.21213403 5.4739075 2.82847776 4.61896089 0 2 C0 1.34 0 0.68 0 0 Z " fill="#E4804D" transform="translate(25,19)"/>
<path d="M0 0 C-1.04494564 3.25094199 -2.59135491 4.56873286 -5.4375 6.25 C-9 8 -9 8 -12 8 C-10.01351708 2.43784783 -5.71424233 0 0 0 Z " fill="#C74894" transform="translate(15,35)"/>
<path d="M0 0 C0.33 1.32 0.66 2.64 1 4 C-0.43725871 4.16873478 -1.87481838 4.33490737 -3.3125 4.5 C-4.11300781 4.5928125 -4.91351563 4.685625 -5.73828125 4.78125 C-8 5 -8 5 -11 5 C-4.85714286 -0.71428571 -4.85714286 -0.71428571 0 0 Z " fill="#EA4F6A" transform="translate(37,10)"/>
<path d="M0 0 C2.875 0.3125 2.875 0.3125 6 1 C6.66 1.99 7.32 2.98 8 4 C5.21176345 5.0326802 4.1322726 5.04509293 1.25 4.0625 C0.5075 3.711875 -0.235 3.36125 -1 3 C-0.67 2.01 -0.34 1.02 0 0 Z " fill="#1B1B1B" transform="translate(99,43)"/>
<path d="M0 0 C3.63 0 7.26 0 11 0 C11 0.66 11 1.32 11 2 C7.7 2.33 4.4 2.66 1 3 C0.67 2.01 0.34 1.02 0 0 Z " fill="#E67451" transform="translate(25,19)"/>
<path d="M0 0 C2.97 0 5.94 0 9 0 C8.67 0.99 8.34 1.98 8 3 C5.03 2.67 2.06 2.34 -1 2 C-0.67 1.34 -0.34 0.68 0 0 Z " fill="#E95D5D" transform="translate(29,14)"/>
</svg>
